Patient4_TMGait_0pt3_02_right_04_EMG.mot
version=1
nRows=26
nColumns=33
inDegrees=no
endheader
time	1LAddLong	2LGlutMax	3LGlutMed	4LIliopsoas	5LSemiMemb	6LBicFemLong	7LRecFem	8LVastMed	9LVastLat	10LGasMed	11LTibAnt	12lTibPost	13LPeroneusLong	14LSol	15LExtDigLong	16LFlexDigLong	17RAddLong	18RGlutMax	19RGlutMed	20RIliopsoas	21RSemiMemb	22RBicFemLong	23RRecFem	24RVastMed	25RVastLat	26RGasMed	27RTibAnt	28RTibPost	29RPeroneusLong	30RSol	31RExtDigLong	32RFlexDigLong
8.398	0.018463	0.041351	-0.1239	0.002594	0.005493	-0.029755	0.073547	-0.005188	0.005035	-0.48614	0.005035	-0.016022	-0.085907	-0.18616	-0.036011	-0.012207	-0.020599	-0.015564	-0.10269	0.10544	0.039978	-0.010223	0.033264	-0.042114	-0.013885	-0.011292	0.34393	-0.000305	-0.075073	-0.12573	-0.001678	-0.011597
8.399	0.006714	0.005035	-0.080719	-0.011902	0.01236	-0.029602	0.19714	-0.019073	0.13031	-0.27298	-0.016479	-0.017853	-0.15198	-0.15839	-0.055847	-0.015106	-0.032654	-0.010071	-0.14664	0.083923	0.031586	0.009308	0.027618	-0.061951	-0.000763	-0.007477	0.56793	0.001373	-0.045013	-0.074005	-0.00061	-0.001678
8.4	-0.005493	0.041809	0.13931	-0.014038	0.009766	-0.065918	0.21622	-0.019531	0.14999	-0.17929	-0.022888	-0.026398	-0.10574	-0.027008	-0.054474	-0.016174	-0.007324	-0.00412	-0.024109	0.013123	0.043945	0.01358	-0.001068	-0.058441	0.007324	-0.003357	0.36133	-0.007172	0.029297	0.080719	-0.003662	-0.01358
8.401	-0.007935	-0.000916	0.026855	0.011444	0.006104	-0.045471	0.16769	-0.017395	0.048218	-0.14145	-0.012665	-0.039215	0.10773	0.089722	0.020599	0.018463	-0.015869	0.023651	-0.10651	-0.025482	0.048523	0.044861	0.023041	-0.042267	-0.002289	-0.008392	-0.48111	0.001526	0.068207	0.21255	0	-0.002594
8.402	-0.015411	-0.001678	-0.1506	0.021515	-0.003357	0.041046	0.15518	-0.013428	0.00412	-0.12711	0.014648	-0.02243	0.030212	0.18951	0.072327	0.038147	-0.046082	-0.006714	-0.20996	-0.024261	0.034637	0.036011	0.024567	-0.086975	-0.005341	-0.000458	-0.45319	-0.007019	0.050201	0.17838	-0.005188	-0.003662
8.403	-0.007172	0.055084	-0.16968	0.019684	-0.015869	0.055084	0.08728	0.016174	-0.000458	-0.095673	0.03006	-0.020599	-0.15015	0.095825	0.073242	0.016785	-0.054626	-0.019379	-0.22629	0.005035	0.052795	0.048065	0.000763	-0.054169	0.02121	-0.006866	-0.19089	-0.00473	0.002441	0.12528	-0.001068	-0.008087
8.404	-0.011292	0.10239	0.03006	0.015411	-0.010529	0.016937	0.071564	0.021362	-0.005646	-0.089874	0.001526	-0.011749	-0.12726	0.18448	0.097351	0.010223	-0.03067	0.04303	-0.067139	-0.05188	0.068665	0.050354	0.037384	-0.043488	0.00885	-0.00061	0.031891	0	-0.01709	0.072784	-0.011444	-0.00412
8.405	-0.01236	0.10712	0.085449	0.004883	-0.002899	0.031433	0.060577	0.019836	0.045013	-0.070038	-0.022888	-0.018463	0.009613	0.20233	0.046844	-0.001831	-0.00412	0.02243	0.11673	-0.12421	0.071869	0.059204	0.027008	-0.030823	0.004883	-0.00351	0.25207	-0.004425	-0.01297	0.005798	-0.001068	-0.004272
8.406	-0.015564	0.091248	0.066986	0.005646	0.014496	0.056763	0.03067	0.028229	0.11719	-0.086975	-0.025024	-0.014801	0.12482	0.18234	-0.002594	-0.015717	0.005493	0.009003	-0.028534	-0.10834	0.075684	0.044708	0.036011	-0.016479	0.00412	-0.000305	0.39307	0.000458	-0.09552	-0.03006	0.002594	-0.007324
8.407	-0.019226	0.054474	0.015259	-0.005341	-0.005493	0.080719	0.061798	0.006714	0.14893	-0.057983	-0.008698	-0.011902	0.13214	0.051727	-0.033875	0.005493	0.026398	0.016785	-0.070953	-0.0737	0.0914	0.046692	0.028839	0.032501	0.028687	-0.002136	0.22797	0.001221	-0.027161	-0.055237	-0.007935	-0.00061
8.408	-0.02182	0.049133	0.034637	-0.015106	-0.056305	0.12451	0.089264	-0.00412	0.15106	-0.06134	-0.002899	-0.013275	0.16434	0.070343	-0.003967	-0.00351	0.015259	0.023346	-0.37338	-0.034332	0.067444	0.011749	0.015869	0.075836	0.005188	-0.002441	0.064697	-0.000305	0.007782	-0.070953	0.001831	-0.011597
8.409	-0.043335	0.080414	0.022888	-0.003967	-0.093842	0.29007	0.11032	0.009918	0.13596	-0.050964	0.005493	-0.001984	0.067444	0.12329	0.023193	0.000763	0.010376	-0.005341	-0.10956	0.005188	0.071716	-0.028992	0.019379	0.065918	-0.024109	-0.008698	-0.061493	-0.000305	-0.018921	-0.059509	-0.002136	-0.007477
8.41	-0.037994	0.059357	-0.04303	0.008087	-0.007477	0.35111	0.1152	0.000153	0.13519	-0.054626	-0.003815	-0.007477	-0.18021	0.093689	0.035706	-0.009155	0.00824	-0.023346	-0.08667	0.053711	0.060425	-0.042572	0.01358	0.02121	-0.031891	-0.010223	0.053406	-0.001984	-0.086365	-0.078735	-0.000305	-0.013428
8.411	-0.036011	0.056915	-0.059967	0.011902	0.028992	0.29053	0.037842	-0.002594	-0.009918	-0.044861	0.00946	-0.002289	-0.050201	0.067291	0.027313	0.007629	0.006866	-0.031738	-0.055389	0.047913	0.053101	-0.018768	0.043945	0.059052	-0.017853	-0.007782	0.18387	-0.002747	-0.046844	-0.055695	-0.003662	-0.012512
8.412	-0.025177	0.098114	-0.035248	-0.002136	0.016785	0.13794	-0.050964	0.0177	-0.19089	-0.023499	0.000916	-0.002136	0.10132	0.076447	-0.019073	-0.007172	0.073853	-0.016022	-0.023804	-0.057983	0.049896	-0.019836	0.027466	0.024567	-0.019073	-0.001068	-0.19562	-0.002594	-0.028076	-0.015106	-0.003662	-0.017548
8.413	-0.021515	0.12711	-0.00473	0.00885	0.014343	-0.015411	-0.17929	0.033569	-0.23575	-0.003052	-0.009613	-0.000763	0.14648	0.096741	-0.011597	0.004883	0.14496	0.008545	-0.065613	-0.21835	0.037994	-0.014954	0.019684	0.077667	-0.023804	-0.001068	-0.70999	-0.006104	-0.015259	-0.047302	0.005646	-0.010376
8.414	-0.011749	0.19012	-0.12192	-0.010223	0.002136	-0.20676	-0.18631	0.053558	-0.18829	0.00946	-0.001831	-0.001526	0.10788	0.15396	0.052185	-0.001068	0.11673	-0.061493	-0.085297	-0.17654	0.03479	-0.012817	0.013428	0.025177	-0.026398	-0.005798	0.041656	0.001678	-0.03891	-0.050201	-0.002747	-0.006561
8.415	0.011902	0.21759	-0.28748	-0.005035	0.018158	-0.61539	-0.2179	0.034027	-0.065613	0.027313	-0.014191	-0.001373	-0.14801	0.20935	0.068054	-0.004578	0.066528	-0.016327	-0.006866	-0.063171	0.023804	-0.007477	0.035706	0.049133	-0.003204	-0.003052	0.34225	0.000153	-0.089569	-0.064545	0.000305	-0.005646
8.416	0.017548	0.29953	-0.22308	0.002441	0.02533	-0.44067	-0.17273	0.00824	-0.003357	0.018463	-0.002899	0.008087	-0.046692	0.078278	0.033569	-0.013123	0.008087	-0.048828	-0.079803	0.054016	0.030518	0.036926	-0.002289	0.025024	-0.015869	0.005951	0.16419	0.002747	-0.1088	-0.10803	0.011749	-0.000305
8.417	0.022278	0.3093	0.20126	0.023346	0.047302	-0.28732	-0.04303	-0.00351	0.032501	-0.018768	0.002441	-0.005188	0.071411	-0.08194	-0.042572	-0.003357	-0.061035	-0.048065	-0.046997	0.30456	0.039215	0.049286	-0.021362	-0.000763	-0.001373	-0.005341	-0.20844	-0.000153	-0.056915	0.071106	-0.00473	-0.001373
8.418	0.024109	0.28686	0.49408	0.049896	0.027771	-0.1474	0.014038	-0.019226	-0.013885	-0.077972	-0.003052	-0.001373	0.068512	-0.035095	-0.030518	-0.004883	-0.097198	-0.050964	0.060883	0.24582	0.045471	0.050049	0.004425	0.021973	0.007629	-0.001068	-0.008392	-0.003357	0.048065	0.068817	-0.003357	-0.005951
8.419	0.039215	0.22446	0.55893	0.010529	0.013123	-0.11246	0.11108	-0.023956	-0.070648	-0.10727	0.002136	0.008698	0.10483	-0.043945	-0.025024	-0.005798	-0.082092	-0.050964	-0.13718	0.10208	0.043793	0.062866	0.000305	0.053406	0.001678	-0.012207	0.41077	-0.000305	-0.048981	-0.043488	-0.004883	-0.001678
8.42	0.02243	0.16754	0.38101	-0.002289	0.027771	-0.062714	0.11856	-0.012817	-0.10422	-0.10208	-0.000153	0.010071	0.042572	-0.00412	-0.00473	-0.005798	-0.039063	-0.02594	-0.1207	-0.070496	0.046844	0.062408	-0.002899	0.017395	0.000305	-0.010071	0.37369	-0.002289	-0.072784	-0.092316	-0.007782	0.002899
8.421	0.01709	0.14374	0.23483	0.014801	0.014343	-0.018311	-0.049286	0.020294	-0.066071	-0.099182	-0.00412	0.004883	-0.039825	0.002594	0.005646	0.004425	-0.02533	0.05661	0.046997	-0.089722	0.04837	0.036774	0.01358	0.039978	-0.002899	0	0.18372	0.00061	0.11429	-0.16296	-0.003357	0.001221
8.422	0.015564	0.13351	0.18707	0.012512	0.008698	-0.008392	-0.093689	0.016632	0.019989	-0.036011	0.003967	0.00885	-0.005951	-0.071259	0.004578	-0.000916	-0.032959	0.024109	0.029907	-0.070496	0.018616	-0.005341	0.015564	-0.051422	-0.028229	0.012207	0.14893	0.000305	0.34561	-0.24704	-0.002136	0.000763
8.423	0.017853	0.036316	-0.092926	0.009613	-0.005341	0.001831	-0.14328	0.022736	0.15091	0.079346	-0.010223	0.010223	0.00885	-0.0354	0.036163	-0.006409	0.001678	-0.023804	-0.009766	0.004425	0	-0.032959	0.027161	-0.062714	-0.017395	0.019684	-0.069885	-0.009308	0.41321	-0.19073	-0.002899	0.005951
